<svg viewBox="0 0 500 500" xmlns="http://www.w3.org/2000/svg"><path d="m320.41 129.79 48.09-8.21c-4.24-12.62-11.72-19.85-21.07-19.85-11.51 0-23.65 10.33-27.02 28.06z" fill="#0ba750"/><path d="m386.93 203h63.07c0-36.74-32.91-61.52-58.42-65.35l-.35-.67 23.26-1.79a9.54 9.54 0 0 0 -1.46-19l-25.8 2c-7.27-24.49-23.39-35.37-39.8-35.37-22.6 0-45.7 20.61-46.8 54.5a196.46 196.46 0 0 0 -28.82 22.6c-19 17.94-33.26 38.49-41.62 59q-9.31 2.5-18.49 5.53l-84 27.73-77.7 25.65 6 20.49h59.2l-52.33 23.06 5.76 19.46h125.81a18.39 18.39 0 0 1 18.37 18.37v28.09l-29.9 29.89h29.73l10.68-10.68 6.44 6.44 4.23 4.24h21.26l4.23-4.24 6.45-6.44 10.67 10.68h29.73l-29.89-29.89v-26.19l74.87-51a58.41 58.41 0 0 0 5.3-4.11c23.27-16.29 33.87-46.86 32.07-75.26zm-39.5-101.29c9.35 0 16.83 7.23 21.07 19.85l-48.09 8.21c3.37-17.71 15.51-28.04 27.02-28.04zm-92 285.57-10.8 10.79-10.8-10.79v-20.09l21.59-18.19zm84.06-94.52-63 42.91v-14.73a55.58 55.58 0 0 0 -35.75 13l-10.47 8.8a39.45 39.45 0 0 0 -35.78-22.94h-75.97l17.48-7.67 31.34-13.81 47.68-21h-96.38l15.66-5.18 84-27.73q2.44-.81 4.91-1.57c15.72-4.26 22.93-6.25 22.93-6.25s1.16-9.63 10.17-23.62c14.55-25.77 39.29-49.74 66.22-64.33l48.47-8.3 9.34 17.94c14.51 0 36.11 5 43.95 25.46h-59.29l1.75 28.19c1.16 30.84 1.47 61.29-27.27 80.85z"/></svg>